HIERARCHY
ROOT Hips
{
    OFFSET   0.000000   0.000000   0.000000
    CHANNELS 6 Xposition Yposition Zposition Xrotation Yrotation Zrotation
    JOINT LeftUpLeg
    {
        OFFSET   0.078795   0.000000   0.000000
        CHANNELS 3 Xrotation Yrotation Zrotation
        JOINT LeftLeg
        {
            OFFSET   0.000000  -0.427566   0.000000
            CHANNELS 3 Xrotation Yrotation Zrotation
            JOINT LeftFoot
            {
                OFFSET   0.000000  -0.394685   0.000000
                CHANNELS 3 Xrotation Yrotation Zrotation
                JOINT LeftToeBase
                {
                    OFFSET   0.000000  -0.039971   0.149173
                    CHANNELS 3 Xrotation Yrotation Zrotation
                }
            }
        }
    }
    JOINT RightUpLeg
    {
        OFFSET  -0.078795   0.000000   0.000000
        CHANNELS 3 Xrotation Yrotation Zrotation
        JOINT RightLeg
        {
            OFFSET   0.000000  -0.427566   0.000000
            CHANNELS 3 Xrotation Yrotation Zrotation
            JOINT RightFoot
            {
                OFFSET   0.000000  -0.394685   0.000000
                CHANNELS 3 Xrotation Yrotation Zrotation
                JOINT RightToeBase
                {
                    OFFSET   0.000000  -0.039971   0.149173
                    CHANNELS 3 Xrotation Yrotation Zrotation
                }
            }
        }
    }
    JOINT Spine
    {
        OFFSET   0.000000   0.001000   0.000000
        CHANNELS 3 Xrotation Yrotation Zrotation
        JOINT Spine1
        {
            OFFSET   0.000000   0.211086   0.000000
            CHANNELS 3 Xrotation Yrotation Zrotation
            JOINT Neck
            {
                OFFSET   0.000000   0.158868   0.000000
                CHANNELS 3 Xrotation Yrotation Zrotation
            }
            JOINT LeftShoulder
            {
                OFFSET   0.000000   0.158868   0.000000
                CHANNELS 3 Xrotation Yrotation Zrotation
                JOINT LeftArm
                {
                    OFFSET   0.189194  -0.000001   0.000000
                    CHANNELS 3 Xrotation Yrotation Zrotation
                    JOINT LeftForeArm
                    {
                        OFFSET   0.272680  -0.000001   0.000000
                        CHANNELS 3 Xrotation Yrotation Zrotation
                        JOINT LeftHand
                        {
                            OFFSET   0.258023  -0.000001   0.000000
                            CHANNELS 3 Xrotation Yrotation Zrotation
                        }
                    }
                }
            }
            JOINT RightShoulder
            {
                OFFSET   0.000000   0.158868   0.000000
                CHANNELS 3 Xrotation Yrotation Zrotation
                JOINT RightArm
                {
                    OFFSET  -0.189194  -0.000001   0.000000
                    CHANNELS 3 Xrotation Yrotation Zrotation
                    JOINT RightForeArm
                    {
                        OFFSET  -0.272680  -0.000001   0.000000
                        CHANNELS 3 Xrotation Yrotation Zrotation
                        JOINT RightHand
                        {
                            OFFSET  -0.258023  -0.000001   0.000000
                            CHANNELS 3 Xrotation Yrotation Zrotation
                        }
                    }
                }
            }
        }
    }
}
MOTION
Frames: 17
Frame Time:   0.016667
  0.649384   0.892231   3.251832  -5.764688  -8.195304   1.335126 -21.374331   5.200576  -8.782991  22.575601   4.731384   6.099895   5.155889   3.501836   1.664882   0.000000   0.000000   0.000000  -8.789496 -14.253363  -6.542181  68.715656  -1.667153  -9.404497  13.320249   0.579541   3.352614   0.000000   0.000000   0.000000   1.805729   1.427429  -1.133433   7.396597   5.587290  -4.695860  14.374762  10.492552  -1.613859  -0.986280   1.823709 -19.107986  18.529638 -21.010116 -52.607733  -0.936627 -28.087561   4.899787   3.084733  -2.736157  -0.727552   0.030320   2.708788  16.099575   9.729420  25.530312  48.305150   2.256678  47.314308 -12.954783  14.165602   0.301622   1.698885
  0.646982   0.896261   3.270423  -5.263402  -7.595666   1.656544 -20.535988   4.547422  -9.319899  22.462809   4.714803   6.211546   4.267112   3.498793   1.231304   0.000000   0.000000   0.000000 -13.201296 -13.671856  -6.569752  70.474820  -2.778506  -9.326551   9.191529  -0.156549   3.380125   0.000000   0.000000   0.000000   1.743514   1.364083  -1.183687   7.143036   5.340219  -4.880999  13.895360  12.055839  -2.200606  -0.969369   2.115766 -19.168601  18.880524 -21.551988 -52.027560  -0.984318 -28.973214   4.992576   3.462699  -2.734909  -1.288011   0.023985   2.796048  16.276847  11.134550  25.408615  48.823385   1.958460  44.502566 -12.378697  13.522997  -0.499997   2.366722
  0.643276   0.899810   3.289169  -4.982410  -6.323128   1.770165 -19.562718   3.970883  -9.652470  22.506834   4.201034   6.355666   3.388763   3.158578   0.878244   0.000000   0.000000   0.000000 -16.932732 -13.617655  -6.512307  70.487733  -3.207101  -9.334966   5.983391  -0.520511   3.691513   0.000000   0.000000   0.000000   1.739787   1.273956  -1.185522   7.113872   4.981021  -4.880554  13.353302  13.554220  -2.685601  -0.968806   2.121065 -19.164106  19.038366 -22.441838 -51.325806  -1.005979 -29.448735   5.106206   3.902828  -2.725505  -1.304412   0.019418   2.842752  16.435423  12.590020  25.263298  49.328663   1.625228  41.039413 -11.459841  12.169222  -0.914668   2.514721
  0.639178   0.903005   3.307978  -4.765214  -4.825723   1.866715 -18.587552   3.375394  -9.948715  22.652906   3.557706   6.483399   2.496041   2.726316   0.553392   0.000000   0.000000   0.000000 -20.435440 -13.676764  -6.515215  69.930847  -3.379597  -9.398752   3.088932  -0.759070   4.093504   0.000000   0.000000   0.000000   1.752061   1.176726  -1.181995   7.147205   4.591438  -4.860679  12.830176  15.013422  -3.141476  -0.972330   2.044259 -19.126875  19.131818 -23.441400 -50.592199  -1.019564 -29.801347   5.219623   4.357851  -2.711220  -1.159555   0.015300   2.878477  16.588517  14.081589  25.133848  49.826346   1.343506  37.401782 -10.453516  10.603868  -1.225193   2.591326
  0.634228   0.904731   3.326972  -4.674542  -2.764064   2.099882 -17.727234   2.615268 -10.283641  23.196076   2.698006   6.490161   1.522214   2.106793   0.325065   0.000000   0.000000   0.000000 -23.352624 -13.801062  -6.899369  67.991258  -2.820664  -9.642401   0.990004  -0.605367   4.757765   0.000000   0.000000   0.000000   1.793747   1.067237  -1.197448   7.298113   4.147214  -4.919685  12.444850  16.306327  -3.584586  -0.981498   1.802615 -18.974788  19.013242 -24.702299 -49.833057  -1.018052 -29.887992   5.309511   4.832573  -2.681076  -0.671558   0.012206   2.894403  16.730136  15.722667  25.074474  50.281415   1.046107  33.468692  -9.035305   8.590846  -1.352890   2.828860
  0.629123   0.906189   3.345999  -4.615641  -0.599588   2.355882 -16.892201   1.821184 -10.615799  23.810737   1.798823   6.483691   0.531973   1.456120   0.104657   0.000000   0.000000   0.000000 -26.165609 -13.917163  -7.358547  65.804454  -2.119528  -9.893833  -0.966862  -0.400811   5.477760   0.000000   0.000000   0.000000   1.840744   0.955505  -1.216270   7.469763   3.692853  -4.991756  12.090874  17.571006  -4.021542  -0.990940   1.530974 -18.801884  18.870890 -26.012516 -49.066085  -1.013814 -29.926271   5.395123   5.310557  -2.643934  -0.121445   0.009279   2.906725  16.869669  17.390768  25.037507  50.729517   0.858660  29.477430  -7.615277   6.496750  -1.456104   3.093219
  0.623150   0.907185   3.365868  -4.541446   2.222131   2.588990 -16.234153   0.686468 -10.767226  24.579698   0.899741   6.272493  -0.395470   0.750935   0.142765   0.000000   0.000000   0.000000 -27.866178 -13.883190  -8.369803  61.437512  -1.018619 -10.110405  -1.574231  -0.076485   7.137108   0.000000   0.000000   0.000000   1.866363   0.828148  -1.213851   7.551966   3.181019  -4.974301  12.011141  18.519943  -4.488280  -0.997523   1.290952 -18.628627  18.524790 -27.448251 -48.214523  -1.015397 -30.037258   5.468335   5.749489  -2.620240   0.334030   0.005940   2.897343  17.097331  19.380018  25.128571  51.147679   0.627773  26.041400  -5.945635   5.130855  -1.999210   4.931205
  0.617076   0.908027   3.385841  -4.464508   5.121526   2.805346 -15.624526  -0.455723 -10.878961  25.388866  -0.013928   6.079086  -1.333930   0.032330   0.195394   0.000000   0.000000   0.000000 -29.364580 -13.730124  -9.384764  56.862254   0.058287 -10.231247  -2.154434   0.220522   8.636995   0.000000   0.000000   0.000000   1.886331   0.699038  -1.206501   7.611228   2.663440  -4.935965  11.954818  19.417634  -4.950089  -1.002777   1.070100 -18.466090  18.174120 -28.869663 -47.365700  -1.020213 -30.199404   5.543127   6.168176  -2.611472   0.765960   0.003557   2.866380  17.335927  21.378427  25.217587  51.606186   0.499576  22.758600  -4.378960   4.025208  -2.668611   6.991897
  0.610448   0.908030   3.406382  -4.319187   8.446916   2.940292 -15.265153  -1.630406 -10.834389  26.435165  -0.995429   5.932363  -2.334395  -0.759249   0.377912   0.000000   0.000000   0.000000 -29.749375 -13.065892 -10.424099  51.115352   0.933535 -10.203623  -2.540130   0.454917   9.243703   0.000000   0.000000   0.000000   1.875241   0.560280  -1.172335   7.544564   2.114039  -4.786879  11.990836  20.030335  -5.379598  -1.004286   0.954778 -18.362294  17.707370 -30.193083 -46.540789  -1.043266 -30.642936   5.626309   6.476872  -2.701541   1.069713   0.006701   2.716801  17.634656  23.423181  25.241827  52.303419   0.386697  20.340315  -3.087386   4.300551  -3.803461  10.347053
  0.603691   0.907925   3.427031  -4.160164  11.929784   2.970132 -14.975535  -2.817133 -10.679865  27.532704  -1.971627   5.837640  -3.336508  -1.555272   0.605863   0.000000   0.000000   0.000000 -29.690557 -12.147577 -11.392330  45.167192   1.724685 -10.030884  -2.657370   0.674841   9.653814   0.000000   0.000000   0.000000   1.853839   0.418388  -1.115288   7.437154   1.555114  -4.546046  12.039751  20.533339  -5.777456  -1.003712   0.878824 -18.267028  17.188809 -31.480177 -45.771227  -1.073087 -31.179235   5.697920   6.723816  -2.857152   1.407130   0.014156   2.504989  17.933422  25.374074  25.206789  53.153801   0.312491  18.200797  -1.931617   5.070664  -5.004750  14.021691
  0.596779   0.908068   3.447702  -3.954525  15.850627   2.528462 -14.821301  -4.039304 -10.098037  28.683251  -2.839929   5.911978  -4.294850  -2.290601   1.006039   0.000000   0.000000   0.000000 -28.365417 -10.350376 -11.990492  39.293404   2.270633  -9.529985  -1.489350   0.884187   9.868688   0.000000   0.000000   0.000000   1.806572   0.268891  -0.959072   7.227746   0.975520  -3.908081  12.050542  20.719966  -6.025004  -0.995831   0.913879 -18.159941  16.443067 -32.643410 -45.279141  -1.125353 -31.944214   5.696292   6.741254  -3.279050   2.055391   0.036604   2.069450  18.172453  26.766259  24.825583  54.612569   0.256396  16.737229  -1.175174   6.892577  -6.217527  18.101819
  0.589840   0.908256   3.468376  -3.699874  19.849136   1.976297 -14.678749  -5.266557  -9.435526  29.845861  -3.686351   6.031050  -5.240968  -3.021005   1.428066   0.000000   0.000000   0.000000 -26.802813  -8.406982 -12.568222  33.427437   2.719751  -8.932848  -0.088004   1.095691  10.043292   0.000000   0.000000   0.000000   1.755011   0.117869  -0.784948   7.006259   0.389647  -3.200022  12.054486  20.849091  -6.245218  -0.986732   0.969134 -18.050711  15.654850 -33.788160 -44.849274  -1.182464 -32.750757   5.680344   6.722206  -3.749763   2.760238   0.063407   1.593324  18.400762  28.064741  24.408451  56.186722   0.214457  15.396168  -0.495067   8.979521  -7.300740  22.299913
  0.583289   0.907390   3.488237  -3.432744  24.343250   1.101474 -14.967440  -6.517593  -8.573886  31.489708  -4.460562   6.428359  -6.203923  -3.734948   2.100584   0.000000   0.000000   0.000000 -24.166480  -5.261665 -12.735903  29.755103   2.722290  -7.833320   1.456107   1.137617  10.112088   0.000000   0.000000   0.000000   1.682603  -0.047086  -0.559194   6.708372  -0.249603  -2.286083  11.969086  20.572499  -6.133278  -0.967598   1.130305 -17.861612  14.645311 -34.763973 -44.909435  -1.254738 -33.605294   5.533773   6.381702  -4.708889   4.293602   0.107267   0.871849  18.423283  28.285103  23.361485  58.521710   0.173784  14.301492  -0.011046  10.627794  -8.223404  25.512472
  0.576769   0.906256   3.507996  -3.093758  28.864082   0.168602 -15.316745  -7.780131  -7.707128  33.227544  -5.210603   6.838538  -7.151491  -4.454670   2.772123   0.000000   0.000000   0.000000 -21.520209  -2.281390 -13.029265  26.406183   2.683730  -6.690889   2.926501   1.177521  10.514114   0.000000   0.000000   0.000000   1.610913  -0.211641  -0.336759   6.420953  -0.890964  -1.387826  11.874208  20.256750  -5.980801  -0.949768   1.284115 -17.679758  13.638042 -35.674372 -45.019453  -1.331310 -34.482115   5.390739   6.102013  -5.692640   5.867547   0.150831   0.158575  18.435457  28.485684  22.319009  60.854109   0.140738  13.211966   0.470225  12.108596  -9.031364  28.547971
  0.570412   0.903642   3.527200  -2.744484  33.551331  -0.834027 -16.081300  -9.091659  -6.800184  35.449782  -5.878627   7.220097  -8.048502  -5.156060   3.490855   0.000000   0.000000   0.000000 -18.810037  -0.162735 -13.340629  24.831608   2.754341  -5.301590   3.990803   1.220976  12.754407   0.000000   0.000000   0.000000   1.540202  -0.372697  -0.131639   6.144538  -1.522542  -0.561014  11.725933  19.725889  -5.603709  -0.936573   1.397150 -17.537545  12.705764 -36.228048 -45.300246  -1.416329 -35.482221   5.279475   6.047628  -6.768429   7.683596   0.191040  -0.509700  18.388204  28.380542  21.253144  63.229638   0.105761  12.152092   0.950410  12.407878  -9.676447  30.445594
  0.564059   0.900360   3.546280  -2.305967  38.223146  -1.891367 -17.018627 -10.418106  -5.937288  37.906547  -6.509576   7.607955  -8.857689  -5.853718   4.202628   0.000000   0.000000   0.000000 -16.177324   1.320118 -13.666927  23.761788   2.862619  -3.964120   4.436115   1.255554  15.386165   0.000000   0.000000   0.000000   1.473503  -0.523384   0.058521   5.889906  -2.116184   0.203749  11.552057  19.135899  -5.168943  -0.927463   1.470911 -17.431382  11.830544 -36.585150 -45.597842  -1.511772 -36.587774   5.184027   6.187676  -7.783624   9.462120   0.226980  -1.110853  18.358682  28.316368  20.319289  65.491828   0.077661  11.185112   1.430326  12.351955 -10.232320  31.998970
  0.557558   0.894874   3.565231  -1.842343  42.665285  -2.832738 -18.560309 -11.729630  -5.303606  41.144363  -7.071971   7.966879  -9.262812  -6.506380   4.867111   0.000000   0.000000   0.000000 -14.082573   0.233760 -13.680296  23.702201   3.175896  -3.169101   1.903698   0.961648  18.329761   0.000000   0.000000   0.000000   1.425746  -0.619610   0.184461   5.710462  -2.496533   0.709127  11.272971  18.439190  -4.630861  -0.935356   1.369354 -17.483799  11.230746 -36.234998 -45.771790  -1.644164 -38.150487   5.154420   7.029471  -8.366680  10.777492   0.246329  -1.387623  18.484398  28.584140  20.169684  67.173348   0.054686  10.700375   1.919323  11.464120 -10.434145  32.792043
